<svg xmlns="http://www.w3.org/2000/svg" viewBox="0 0 1500 540" width="1500" height="540" role="img" aria-label="Oh My Humanize hero">
  <defs>
    <linearGradient id="bg" x1="0" y1="0" x2="1" y2="1">
      <stop offset="0" stop-color="#070b12"/>
      <stop offset="0.55" stop-color="#101827"/>
      <stop offset="1" stop-color="#170d1f"/>
    </linearGradient>
    <linearGradient id="flow" x1="240" y1="90" x2="1280" y2="440" gradientUnits="userSpaceOnUse">
      <stop offset="0" stop-color="#38d7ff"/>
      <stop offset="0.45" stop-color="#a76bff"/>
      <stop offset="1" stop-color="#ff5ea8"/>
    </linearGradient>
    <filter id="blur" x="-20%" y="-20%" width="140%" height="140%">
      <feGaussianBlur stdDeviation="18"/>
    </filter>
  </defs>
  <rect width="1500" height="540" fill="url(#bg)"/>
  <g opacity=".16" stroke="#d8f5ff" stroke-width="1">
    <path d="M120 92h1260M120 172h1260M120 252h1260M120 332h1260M120 412h1260"/>
    <path d="M180 60v420M320 60v420M460 60v420M600 60v420M740 60v420M880 60v420M1020 60v420M1160 60v420M1300 60v420"/>
  </g>
  <path d="M220 330 C340 220 470 220 590 330 S830 440 950 330 S1190 220 1300 330" fill="none" stroke="url(#flow)" stroke-width="14" stroke-linecap="round" opacity=".18" filter="url(#blur)"/>
  <path d="M220 330 C340 220 470 220 590 330 S830 440 950 330 S1190 220 1300 330" fill="none" stroke="url(#flow)" stroke-width="4" stroke-linecap="round"/>
  <g fill="#0b111c" stroke="url(#flow)" stroke-width="4">
    <rect x="190" y="290" width="160" height="80" rx="14"/>
    <rect x="500" y="210" width="170" height="80" rx="14"/>
    <rect x="720" y="370" width="170" height="80" rx="14"/>
    <rect x="1010" y="210" width="170" height="80" rx="14"/>
    <rect x="1200" y="290" width="160" height="80" rx="14"/>
  </g>
  <g font-family="JetBrains Mono, SFMono-Regular, Menlo, Consolas, monospace" font-weight="700" font-size="24" fill="#f8fbff">
    <text x="270" y="339" text-anchor="middle">PLAN</text>
    <text x="585" y="259" text-anchor="middle">BUILD</text>
    <text x="805" y="419" text-anchor="middle">REVIEW</text>
    <text x="1095" y="259" text-anchor="middle">MUTATE</text>
    <text x="1280" y="339" text-anchor="middle">SHIP</text>
  </g>
  <g transform="translate(410 112)">
    <text x="340" y="0" text-anchor="middle" font-family="JetBrains Mono, SFMono-Regular, Menlo, Consolas, monospace" font-size="76" font-weight="900" letter-spacing="8" fill="#f8fbff">OH MY HUMANIZE</text>
    <text x="340" y="54" text-anchor="middle" font-family="JetBrains Mono, SFMono-Regular, Menlo, Consolas, monospace" font-size="20" font-weight="600" letter-spacing="5" fill="#9fb5cc">WORKFLOW-NATIVE AGENTIC CODING</text>
  </g>
  <g transform="translate(120 494)" font-family="JetBrains Mono, SFMono-Regular, Menlo, Consolas, monospace" font-size="18" fill="#8ba1b8">
    <text>freeze -> run -> observe -> intervene -> checkpoint -> evolve</text>
  </g>
</svg>
