<svg xmlns="http://www.w3.org/2000/svg" viewBox="0 0 120 90" width="120" height="90" role="img" aria-label="OMH workflow icon">
  <defs>
    <linearGradient id="omh-node" x1="8" y1="10" x2="112" y2="82" gradientUnits="userSpaceOnUse">
      <stop offset="0" stop-color="#38d7ff"/>
      <stop offset="0.48" stop-color="#a76bff"/>
      <stop offset="1" stop-color="#ff5ea8"/>
    </linearGradient>
    <filter id="soft-glow" x="-40%" y="-40%" width="180%" height="180%">
      <feGaussianBlur stdDeviation="3" result="blur"/>
      <feColorMatrix in="blur" type="matrix" values="0 0 0 0 0.36 0 0 0 0 0.78 0 0 0 0 1 0 0 0 .55 0"/>
      <feMerge>
        <feMergeNode/>
        <feMergeNode in="SourceGraphic"/>
      </feMerge>
    </filter>
  </defs>
  <rect x="2" y="2" width="116" height="86" rx="18" fill="#090d14"/>
  <path d="M28 45h22m20 0h22M50 45V27m0 18v18m20-18V27m0 18v18" fill="none" stroke="#253244" stroke-width="5" stroke-linecap="round"/>
  <path d="M28 45h22m20 0h22M50 45V27m0 18v18m20-18V27m0 18v18" fill="none" stroke="url(#omh-node)" stroke-width="2.5" stroke-linecap="round" opacity=".9"/>
  <g filter="url(#soft-glow)">
    <circle cx="28" cy="45" r="9" fill="#38d7ff"/>
    <circle cx="50" cy="27" r="8" fill="#75a7ff"/>
    <circle cx="50" cy="63" r="8" fill="#8f7cff"/>
    <circle cx="70" cy="27" r="8" fill="#b66cff"/>
    <circle cx="70" cy="63" r="8" fill="#df64d2"/>
    <circle cx="92" cy="45" r="9" fill="#ff5ea8"/>
  </g>
  <text x="60" y="49" text-anchor="middle" font-family="JetBrains Mono, SFMono-Regular, Menlo, Consolas, monospace" font-size="12" font-weight="800" letter-spacing="1.6" fill="#f8fbff">OMH</text>
</svg>
