<svg xmlns="http://www.w3.org/2000/svg" viewBox="0 0 1200 630" width="1200" height="630" role="img" aria-label="OMH collab">
  <defs>
    <linearGradient id="bg" x1="0" y1="0" x2="1" y2="1">
      <stop offset="0" stop-color="#070b12"/>
      <stop offset="0.58" stop-color="#101827"/>
      <stop offset="1" stop-color="#1a0d24"/>
    </linearGradient>
    <linearGradient id="flow" x1="120" y1="150" x2="1080" y2="480" gradientUnits="userSpaceOnUse">
      <stop offset="0" stop-color="#38d7ff"/>
      <stop offset=".5" stop-color="#a76bff"/>
      <stop offset="1" stop-color="#ff5ea8"/>
    </linearGradient>
  </defs>
  <rect width="1200" height="630" fill="url(#bg)"/>
  <g opacity=".14" stroke="#d8f5ff" stroke-width="1">
    <path d="M80 105h1040M80 195h1040M80 285h1040M80 375h1040M80 465h1040"/>
    <path d="M150 70v500M300 70v500M450 70v500M600 70v500M750 70v500M900 70v500M1050 70v500"/>
  </g>
  <path d="M160 410 C300 300 430 300 560 410 S840 560 1040 350" fill="none" stroke="url(#flow)" stroke-width="7" stroke-linecap="round"/>
  <g fill="#0b111c" stroke="url(#flow)" stroke-width="4">
    <rect x="120" y="370" width="150" height="78" rx="14"/>
    <rect x="500" y="370" width="150" height="78" rx="14"/>
    <rect x="980" y="310" width="150" height="78" rx="14"/>
  </g>
  <g font-family="JetBrains Mono, SFMono-Regular, Menlo, Consolas, monospace" font-weight="700" font-size="22" fill="#f8fbff">
    <text x="195" y="418" text-anchor="middle">HOST</text>
    <text x="575" y="418" text-anchor="middle">FLOW</text>
    <text x="1055" y="358" text-anchor="middle">GUEST</text>
  </g>
  <text x="600" y="190" text-anchor="middle" font-family="JetBrains Mono, SFMono-Regular, Menlo, Consolas, monospace" font-size="82" font-weight="900" letter-spacing="8" fill="#f8fbff">OMH COLLAB</text>
  <text x="600" y="250" text-anchor="middle" font-family="JetBrains Mono, SFMono-Regular, Menlo, Consolas, monospace" font-size="24" font-weight="600" letter-spacing="4" fill="#9fb5cc">WATCH AND STEER LIVE AGENTIC WORKFLOWS</text>
  <text x="600" y="555" text-anchor="middle" font-family="JetBrains Mono, SFMono-Regular, Menlo, Consolas, monospace" font-size="20" fill="#8ba1b8">my.omh.sh</text>
</svg>
